<mxfile host="app.diagrams.net" modified="2023-04-09T15:58:54.450Z" agent="Mozilla/5.0 (Windows NT 10.0; Win64; x64) AppleWebKit/537.36 (KHTML, like Gecko) Chrome/111.0.0.0 Safari/537.36" etag="MDMUWP_gqMKtGZR06qIt" version="21.1.5" type="device">
  <diagram id="C5RBs43oDa-KdzZeNtuy" name="Page-1">
    <mxGraphModel dx="1500" dy="784" grid="1" gridSize="10" guides="1" tooltips="1" connect="1" arrows="1" fold="1" page="1" pageScale="1" pageWidth="1200" pageHeight="1600" math="0" shadow="0">
      <root>
        <mxCell id="WIyWlLk6GJQsqaUBKTNV-0" />
        <mxCell id="WIyWlLk6GJQsqaUBKTNV-1" parent="WIyWlLk6GJQsqaUBKTNV-0" />
        <mxCell id="WIyWlLk6GJQsqaUBKTNV-2" value="" style="rounded=0;html=1;jettySize=auto;orthogonalLoop=1;fontSize=11;endArrow=block;endFill=0;endSize=8;strokeWidth=1;shadow=0;labelBackgroundColor=none;edgeStyle=orthogonalEdgeStyle;strokeColor=#36393d;fontColor=default;fillColor=#eeeeee;" parent="WIyWlLk6GJQsqaUBKTNV-1" source="WIyWlLk6GJQsqaUBKTNV-3" target="WIyWlLk6GJQsqaUBKTNV-6" edge="1">
          <mxGeometry relative="1" as="geometry" />
        </mxCell>
        <mxCell id="WIyWlLk6GJQsqaUBKTNV-3" value="Access App" style="rounded=1;whiteSpace=wrap;html=1;fontSize=12;glass=0;strokeWidth=1;shadow=0;fillColor=#eeeeee;strokeColor=#36393d;labelBackgroundColor=none;" parent="WIyWlLk6GJQsqaUBKTNV-1" vertex="1">
          <mxGeometry x="430" y="190" width="120" height="40" as="geometry" />
        </mxCell>
        <mxCell id="WIyWlLk6GJQsqaUBKTNV-5" value="No" style="edgeStyle=orthogonalEdgeStyle;rounded=0;html=1;jettySize=auto;orthogonalLoop=1;fontSize=11;endArrow=block;endFill=0;endSize=8;strokeWidth=1;shadow=0;labelBackgroundColor=none;fontColor=default;fillColor=#eeeeee;strokeColor=#36393d;" parent="WIyWlLk6GJQsqaUBKTNV-1" source="WIyWlLk6GJQsqaUBKTNV-6" target="WIyWlLk6GJQsqaUBKTNV-7" edge="1">
          <mxGeometry y="10" relative="1" as="geometry">
            <mxPoint as="offset" />
          </mxGeometry>
        </mxCell>
        <mxCell id="piSnko-USVi0DX37_DhA-0" style="edgeStyle=orthogonalEdgeStyle;rounded=0;orthogonalLoop=1;jettySize=auto;html=1;exitX=0.5;exitY=1;exitDx=0;exitDy=0;entryX=0;entryY=0.5;entryDx=0;entryDy=0;" edge="1" parent="WIyWlLk6GJQsqaUBKTNV-1" source="WIyWlLk6GJQsqaUBKTNV-6" target="X6ecjH52VzshDSkAjW-6-12">
          <mxGeometry relative="1" as="geometry" />
        </mxCell>
        <mxCell id="WIyWlLk6GJQsqaUBKTNV-6" value="Is Logged in?" style="rhombus;whiteSpace=wrap;html=1;shadow=0;fontFamily=Helvetica;fontSize=12;align=center;strokeWidth=1;spacing=6;spacingTop=-4;labelBackgroundColor=none;fillColor=#eeeeee;strokeColor=#36393d;" parent="WIyWlLk6GJQsqaUBKTNV-1" vertex="1">
          <mxGeometry x="440" y="295" width="100" height="80" as="geometry" />
        </mxCell>
        <mxCell id="WIyWlLk6GJQsqaUBKTNV-7" value="Show Login Form" style="rounded=1;whiteSpace=wrap;html=1;fontSize=12;glass=0;strokeWidth=1;shadow=0;labelBackgroundColor=none;fillColor=#eeeeee;strokeColor=#36393d;" parent="WIyWlLk6GJQsqaUBKTNV-1" vertex="1">
          <mxGeometry x="620" y="315" width="120" height="40" as="geometry" />
        </mxCell>
        <mxCell id="X6ecjH52VzshDSkAjW-6-1" value="" style="endArrow=classic;html=1;rounded=0;exitX=1;exitY=0.5;exitDx=0;exitDy=0;entryX=0;entryY=0.5;entryDx=0;entryDy=0;labelBackgroundColor=none;fontColor=default;fillColor=#eeeeee;strokeColor=#36393d;" parent="WIyWlLk6GJQsqaUBKTNV-1" source="WIyWlLk6GJQsqaUBKTNV-7" target="X6ecjH52VzshDSkAjW-6-4" edge="1">
          <mxGeometry width="50" height="50" relative="1" as="geometry">
            <mxPoint x="660" y="540" as="sourcePoint" />
            <mxPoint x="800" y="416.78571428571433" as="targetPoint" />
          </mxGeometry>
        </mxCell>
        <mxCell id="X6ecjH52VzshDSkAjW-6-4" value="Is Registered?" style="rhombus;whiteSpace=wrap;html=1;labelBackgroundColor=none;fillColor=#eeeeee;strokeColor=#36393d;" parent="WIyWlLk6GJQsqaUBKTNV-1" vertex="1">
          <mxGeometry x="810" y="290" width="90" height="90" as="geometry" />
        </mxCell>
        <mxCell id="X6ecjH52VzshDSkAjW-6-5" value="Log in" style="rounded=1;whiteSpace=wrap;html=1;labelBackgroundColor=none;fillColor=#eeeeee;strokeColor=#36393d;" parent="WIyWlLk6GJQsqaUBKTNV-1" vertex="1">
          <mxGeometry x="820" y="450" width="70" height="35" as="geometry" />
        </mxCell>
        <mxCell id="X6ecjH52VzshDSkAjW-6-6" value="" style="endArrow=classic;html=1;rounded=0;entryX=0.5;entryY=0;entryDx=0;entryDy=0;exitX=0.5;exitY=1;exitDx=0;exitDy=0;labelBackgroundColor=none;fontColor=default;fillColor=#eeeeee;strokeColor=#36393d;" parent="WIyWlLk6GJQsqaUBKTNV-1" source="X6ecjH52VzshDSkAjW-6-4" target="X6ecjH52VzshDSkAjW-6-5" edge="1">
          <mxGeometry width="50" height="50" relative="1" as="geometry">
            <mxPoint x="835" y="470" as="sourcePoint" />
            <mxPoint x="710" y="490" as="targetPoint" />
          </mxGeometry>
        </mxCell>
        <mxCell id="X6ecjH52VzshDSkAjW-6-7" value="Yes" style="text;html=1;align=center;verticalAlign=middle;resizable=0;points=[];autosize=1;labelBackgroundColor=none;" parent="WIyWlLk6GJQsqaUBKTNV-1" vertex="1">
          <mxGeometry x="850" y="375" width="40" height="30" as="geometry" />
        </mxCell>
        <mxCell id="piSnko-USVi0DX37_DhA-4" style="edgeStyle=orthogonalEdgeStyle;rounded=0;orthogonalLoop=1;jettySize=auto;html=1;exitX=0.5;exitY=1;exitDx=0;exitDy=0;entryX=1;entryY=0.5;entryDx=0;entryDy=0;fillColor=#eeeeee;strokeColor=#36393d;" edge="1" parent="WIyWlLk6GJQsqaUBKTNV-1" source="X6ecjH52VzshDSkAjW-6-8" target="X6ecjH52VzshDSkAjW-6-5">
          <mxGeometry relative="1" as="geometry" />
        </mxCell>
        <mxCell id="X6ecjH52VzshDSkAjW-6-8" value="Register" style="rounded=1;whiteSpace=wrap;html=1;labelBackgroundColor=none;fillColor=#eeeeee;strokeColor=#36393d;" parent="WIyWlLk6GJQsqaUBKTNV-1" vertex="1">
          <mxGeometry x="960" y="315" width="100" height="40" as="geometry" />
        </mxCell>
        <mxCell id="X6ecjH52VzshDSkAjW-6-9" value="" style="endArrow=classic;html=1;rounded=0;exitX=1;exitY=0.5;exitDx=0;exitDy=0;entryX=0;entryY=0.5;entryDx=0;entryDy=0;labelBackgroundColor=none;fontColor=default;fillColor=#eeeeee;strokeColor=#36393d;" parent="WIyWlLk6GJQsqaUBKTNV-1" source="X6ecjH52VzshDSkAjW-6-4" target="X6ecjH52VzshDSkAjW-6-8" edge="1">
          <mxGeometry width="50" height="50" relative="1" as="geometry">
            <mxPoint x="660" y="540" as="sourcePoint" />
            <mxPoint x="710" y="490" as="targetPoint" />
          </mxGeometry>
        </mxCell>
        <mxCell id="X6ecjH52VzshDSkAjW-6-10" value="No" style="text;html=1;align=center;verticalAlign=middle;resizable=0;points=[];autosize=1;labelBackgroundColor=none;" parent="WIyWlLk6GJQsqaUBKTNV-1" vertex="1">
          <mxGeometry x="900" y="310" width="40" height="30" as="geometry" />
        </mxCell>
        <mxCell id="X6ecjH52VzshDSkAjW-6-12" value="Show Main Menu" style="rounded=1;whiteSpace=wrap;html=1;labelBackgroundColor=none;fillColor=#bac8d3;strokeColor=#23445d;" parent="WIyWlLk6GJQsqaUBKTNV-1" vertex="1">
          <mxGeometry x="620" y="525" width="80" height="50" as="geometry" />
        </mxCell>
        <mxCell id="X6ecjH52VzshDSkAjW-6-13" value="" style="endArrow=classic;html=1;rounded=0;exitX=0;exitY=0.5;exitDx=0;exitDy=0;entryX=1;entryY=0.5;entryDx=0;entryDy=0;labelBackgroundColor=none;strokeColor=#000000;fontColor=default;" parent="WIyWlLk6GJQsqaUBKTNV-1" source="X6ecjH52VzshDSkAjW-6-5" target="X6ecjH52VzshDSkAjW-6-12" edge="1">
          <mxGeometry width="50" height="50" relative="1" as="geometry">
            <mxPoint x="660" y="540" as="sourcePoint" />
            <mxPoint x="710" y="490" as="targetPoint" />
            <Array as="points" />
          </mxGeometry>
        </mxCell>
        <mxCell id="X6ecjH52VzshDSkAjW-6-14" value="Play a Game" style="rounded=1;whiteSpace=wrap;html=1;labelBackgroundColor=none;fillColor=#ffe6cc;strokeColor=#d79b00;" parent="WIyWlLk6GJQsqaUBKTNV-1" vertex="1">
          <mxGeometry x="710" y="930" width="90" height="30" as="geometry" />
        </mxCell>
        <mxCell id="X6ecjH52VzshDSkAjW-6-18" value="View Opponent&#39;s&amp;nbsp;&lt;br&gt;Profile" style="rounded=1;whiteSpace=wrap;html=1;labelBackgroundColor=none;fillColor=#ffe6cc;strokeColor=#d79b00;" parent="WIyWlLk6GJQsqaUBKTNV-1" vertex="1">
          <mxGeometry x="550" y="930" width="100" height="30" as="geometry" />
        </mxCell>
        <mxCell id="X6ecjH52VzshDSkAjW-6-20" value="View Own Profile" style="rounded=1;whiteSpace=wrap;html=1;labelBackgroundColor=none;fillColor=#e1d5e7;strokeColor=#9673a6;" parent="WIyWlLk6GJQsqaUBKTNV-1" vertex="1">
          <mxGeometry x="375" y="728" width="80" height="30" as="geometry" />
        </mxCell>
        <mxCell id="X6ecjH52VzshDSkAjW-6-23" value="VIew Game History" style="rounded=1;whiteSpace=wrap;html=1;labelBackgroundColor=none;fillColor=#e1d5e7;strokeColor=#9673a6;" parent="WIyWlLk6GJQsqaUBKTNV-1" vertex="1">
          <mxGeometry x="190" y="728" width="90" height="30" as="geometry" />
        </mxCell>
        <mxCell id="X6ecjH52VzshDSkAjW-6-25" value="Customize&lt;br&gt;Profile" style="rounded=1;whiteSpace=wrap;html=1;labelBackgroundColor=none;fillColor=#e1d5e7;strokeColor=#9673a6;" parent="WIyWlLk6GJQsqaUBKTNV-1" vertex="1">
          <mxGeometry x="220" y="803" width="90" height="30" as="geometry" />
        </mxCell>
        <mxCell id="X6ecjH52VzshDSkAjW-6-27" value="Customize Board&lt;br&gt;and Pieces" style="rounded=1;whiteSpace=wrap;html=1;labelBackgroundColor=none;fillColor=#e1d5e7;strokeColor=#9673a6;" parent="WIyWlLk6GJQsqaUBKTNV-1" vertex="1">
          <mxGeometry x="367.5" y="833" width="95" height="40" as="geometry" />
        </mxCell>
        <mxCell id="X6ecjH52VzshDSkAjW-6-39" style="edgeStyle=orthogonalEdgeStyle;rounded=0;orthogonalLoop=1;jettySize=auto;html=1;exitX=0;exitY=0.5;exitDx=0;exitDy=0;entryX=1;entryY=0.5;entryDx=0;entryDy=0;labelBackgroundColor=none;strokeColor=#6c8ebf;fontColor=default;fillColor=#dae8fc;" parent="WIyWlLk6GJQsqaUBKTNV-1" source="X6ecjH52VzshDSkAjW-6-35" target="X6ecjH52VzshDSkAjW-6-37" edge="1">
          <mxGeometry relative="1" as="geometry" />
        </mxCell>
        <mxCell id="X6ecjH52VzshDSkAjW-6-35" value="Search&lt;br&gt;Players" style="rounded=1;whiteSpace=wrap;html=1;labelBackgroundColor=none;fillColor=#dae8fc;strokeColor=#6c8ebf;" parent="WIyWlLk6GJQsqaUBKTNV-1" vertex="1">
          <mxGeometry x="335" y="570" width="70" height="30" as="geometry" />
        </mxCell>
        <mxCell id="X6ecjH52VzshDSkAjW-6-40" style="edgeStyle=orthogonalEdgeStyle;rounded=0;orthogonalLoop=1;jettySize=auto;html=1;exitX=1;exitY=0.5;exitDx=0;exitDy=0;entryX=0;entryY=0.5;entryDx=0;entryDy=0;labelBackgroundColor=none;strokeColor=#000000;fontColor=default;fillColor=#dae8fc;" parent="WIyWlLk6GJQsqaUBKTNV-1" source="X6ecjH52VzshDSkAjW-6-37" target="X6ecjH52VzshDSkAjW-6-35" edge="1">
          <mxGeometry relative="1" as="geometry" />
        </mxCell>
        <mxCell id="X6ecjH52VzshDSkAjW-6-45" style="edgeStyle=orthogonalEdgeStyle;rounded=0;orthogonalLoop=1;jettySize=auto;html=1;exitX=0;exitY=0.5;exitDx=0;exitDy=0;entryX=0.5;entryY=1;entryDx=0;entryDy=0;labelBackgroundColor=none;strokeColor=#6c8ebf;fontColor=default;fillColor=#dae8fc;" parent="WIyWlLk6GJQsqaUBKTNV-1" source="X6ecjH52VzshDSkAjW-6-37" target="X6ecjH52VzshDSkAjW-6-44" edge="1">
          <mxGeometry relative="1" as="geometry" />
        </mxCell>
        <mxCell id="X6ecjH52VzshDSkAjW-6-37" value="View Player&#39;s&lt;br&gt;Profile" style="rounded=1;whiteSpace=wrap;html=1;labelBackgroundColor=none;fillColor=#dae8fc;strokeColor=#6c8ebf;" parent="WIyWlLk6GJQsqaUBKTNV-1" vertex="1">
          <mxGeometry x="220" y="612.5" width="75" height="30" as="geometry" />
        </mxCell>
        <mxCell id="X6ecjH52VzshDSkAjW-6-41" value="Add/Remove&lt;br&gt;Friend" style="rounded=1;whiteSpace=wrap;html=1;labelBackgroundColor=none;fillColor=#dae8fc;strokeColor=#6c8ebf;" parent="WIyWlLk6GJQsqaUBKTNV-1" vertex="1">
          <mxGeometry x="217.5" y="490" width="80" height="30" as="geometry" />
        </mxCell>
        <mxCell id="X6ecjH52VzshDSkAjW-6-46" style="edgeStyle=orthogonalEdgeStyle;rounded=0;orthogonalLoop=1;jettySize=auto;html=1;exitX=0.5;exitY=1;exitDx=0;exitDy=0;entryX=0;entryY=0.5;entryDx=0;entryDy=0;labelBackgroundColor=none;strokeColor=#000000;fontColor=default;fillColor=#dae8fc;" parent="WIyWlLk6GJQsqaUBKTNV-1" source="X6ecjH52VzshDSkAjW-6-44" target="X6ecjH52VzshDSkAjW-6-37" edge="1">
          <mxGeometry relative="1" as="geometry" />
        </mxCell>
        <mxCell id="X6ecjH52VzshDSkAjW-6-44" value="Spectate Ongoing Game" style="rounded=1;whiteSpace=wrap;html=1;labelBackgroundColor=none;fillColor=#dae8fc;strokeColor=#6c8ebf;" parent="WIyWlLk6GJQsqaUBKTNV-1" vertex="1">
          <mxGeometry x="150" y="542.5" width="85" height="35" as="geometry" />
        </mxCell>
        <mxCell id="X6ecjH52VzshDSkAjW-6-47" value="View Friends List" style="rounded=1;whiteSpace=wrap;html=1;labelBackgroundColor=none;fillColor=#fff2cc;strokeColor=#d6b656;" parent="WIyWlLk6GJQsqaUBKTNV-1" vertex="1">
          <mxGeometry x="915" y="607.5" width="90" height="40" as="geometry" />
        </mxCell>
        <mxCell id="X6ecjH52VzshDSkAjW-6-50" value="Challenge Friend to a Game" style="rounded=1;whiteSpace=wrap;html=1;labelBackgroundColor=none;fillColor=#fff2cc;strokeColor=#d6b656;" parent="WIyWlLk6GJQsqaUBKTNV-1" vertex="1">
          <mxGeometry x="910" y="712.5" width="100" height="40" as="geometry" />
        </mxCell>
        <mxCell id="X6ecjH52VzshDSkAjW-6-57" value="" style="endArrow=classic;startArrow=classic;html=1;rounded=0;exitX=0.5;exitY=0;exitDx=0;exitDy=0;entryX=0.5;entryY=1;entryDx=0;entryDy=0;labelBackgroundColor=none;strokeColor=#000000;fontColor=default;fillColor=#dae8fc;" parent="WIyWlLk6GJQsqaUBKTNV-1" source="X6ecjH52VzshDSkAjW-6-37" target="X6ecjH52VzshDSkAjW-6-41" edge="1">
          <mxGeometry width="50" height="50" relative="1" as="geometry">
            <mxPoint x="245" y="525" as="sourcePoint" />
            <mxPoint x="295" y="475" as="targetPoint" />
          </mxGeometry>
        </mxCell>
        <mxCell id="X6ecjH52VzshDSkAjW-6-58" value="Friend Accepts Challenge?" style="rhombus;whiteSpace=wrap;html=1;labelBackgroundColor=none;fillColor=#fff2cc;strokeColor=#d6b656;" parent="WIyWlLk6GJQsqaUBKTNV-1" vertex="1">
          <mxGeometry x="910" y="792.5" width="100" height="100" as="geometry" />
        </mxCell>
        <mxCell id="X6ecjH52VzshDSkAjW-6-62" value="Yes" style="text;html=1;align=center;verticalAlign=middle;resizable=0;points=[];autosize=1;strokeColor=none;fillColor=none;labelBackgroundColor=none;fontColor=#46495D;" parent="WIyWlLk6GJQsqaUBKTNV-1" vertex="1">
          <mxGeometry x="840" y="892.5" width="40" height="30" as="geometry" />
        </mxCell>
        <mxCell id="piSnko-USVi0DX37_DhA-1" value="Yes" style="text;html=1;align=center;verticalAlign=middle;resizable=0;points=[];autosize=1;" vertex="1" parent="WIyWlLk6GJQsqaUBKTNV-1">
          <mxGeometry x="515" y="395" width="40" height="30" as="geometry" />
        </mxCell>
        <mxCell id="piSnko-USVi0DX37_DhA-6" value="" style="endArrow=classic;startArrow=classic;html=1;rounded=0;exitX=0.5;exitY=0;exitDx=0;exitDy=0;entryX=0;entryY=1;entryDx=0;entryDy=0;" edge="1" parent="WIyWlLk6GJQsqaUBKTNV-1" source="X6ecjH52VzshDSkAjW-6-20" target="X6ecjH52VzshDSkAjW-6-12">
          <mxGeometry width="50" height="50" relative="1" as="geometry">
            <mxPoint x="500" y="750" as="sourcePoint" />
            <mxPoint x="550" y="700" as="targetPoint" />
          </mxGeometry>
        </mxCell>
        <mxCell id="piSnko-USVi0DX37_DhA-7" value="" style="endArrow=classic;startArrow=classic;html=1;rounded=0;entryX=0;entryY=0.5;entryDx=0;entryDy=0;fillColor=#e1d5e7;strokeColor=#000000;" edge="1" parent="WIyWlLk6GJQsqaUBKTNV-1" source="X6ecjH52VzshDSkAjW-6-23" target="X6ecjH52VzshDSkAjW-6-20">
          <mxGeometry width="50" height="50" relative="1" as="geometry">
            <mxPoint x="295" y="828" as="sourcePoint" />
            <mxPoint x="365.71067811865476" y="778" as="targetPoint" />
          </mxGeometry>
        </mxCell>
        <mxCell id="piSnko-USVi0DX37_DhA-9" value="" style="endArrow=classic;startArrow=classic;html=1;rounded=0;entryX=0;entryY=0.75;entryDx=0;entryDy=0;exitX=1;exitY=0.5;exitDx=0;exitDy=0;" edge="1" parent="WIyWlLk6GJQsqaUBKTNV-1" source="X6ecjH52VzshDSkAjW-6-35" target="X6ecjH52VzshDSkAjW-6-12">
          <mxGeometry width="50" height="50" relative="1" as="geometry">
            <mxPoint x="405.0000000000002" y="486.5" as="sourcePoint" />
            <mxPoint x="595.7106781186548" y="485" as="targetPoint" />
          </mxGeometry>
        </mxCell>
        <mxCell id="piSnko-USVi0DX37_DhA-10" value="" style="endArrow=classic;startArrow=classic;html=1;rounded=0;fillColor=#e1d5e7;strokeColor=#000000;" edge="1" parent="WIyWlLk6GJQsqaUBKTNV-1" source="X6ecjH52VzshDSkAjW-6-25">
          <mxGeometry width="50" height="50" relative="1" as="geometry">
            <mxPoint x="280" y="853" as="sourcePoint" />
            <mxPoint x="375" y="753" as="targetPoint" />
          </mxGeometry>
        </mxCell>
        <mxCell id="piSnko-USVi0DX37_DhA-11" value="" style="endArrow=classic;startArrow=classic;html=1;rounded=0;entryX=0.5;entryY=1;entryDx=0;entryDy=0;fillColor=#e1d5e7;strokeColor=#000000;" edge="1" parent="WIyWlLk6GJQsqaUBKTNV-1" source="X6ecjH52VzshDSkAjW-6-27" target="X6ecjH52VzshDSkAjW-6-20">
          <mxGeometry width="50" height="50" relative="1" as="geometry">
            <mxPoint x="415" y="787.2893218813452" as="sourcePoint" />
            <mxPoint x="423" y="773" as="targetPoint" />
          </mxGeometry>
        </mxCell>
        <mxCell id="piSnko-USVi0DX37_DhA-13" value="" style="endArrow=classic;startArrow=classic;html=1;rounded=0;entryX=0.5;entryY=0;entryDx=0;entryDy=0;" edge="1" parent="WIyWlLk6GJQsqaUBKTNV-1" source="X6ecjH52VzshDSkAjW-6-12" target="X6ecjH52VzshDSkAjW-6-14">
          <mxGeometry width="50" height="50" relative="1" as="geometry">
            <mxPoint x="660" y="570" as="sourcePoint" />
            <mxPoint x="660" y="590.7106781186548" as="targetPoint" />
          </mxGeometry>
        </mxCell>
        <mxCell id="piSnko-USVi0DX37_DhA-17" value="" style="endArrow=classic;startArrow=classic;html=1;rounded=0;entryX=1;entryY=1;entryDx=0;entryDy=0;exitX=0;exitY=0;exitDx=0;exitDy=0;" edge="1" parent="WIyWlLk6GJQsqaUBKTNV-1" source="X6ecjH52VzshDSkAjW-6-47" target="X6ecjH52VzshDSkAjW-6-12">
          <mxGeometry width="50" height="50" relative="1" as="geometry">
            <mxPoint x="775" y="629.2893218813452" as="sourcePoint" />
            <mxPoint x="775" y="579.2893218813452" as="targetPoint" />
          </mxGeometry>
        </mxCell>
        <mxCell id="piSnko-USVi0DX37_DhA-18" value="" style="endArrow=classic;startArrow=classic;html=1;rounded=0;entryX=0.5;entryY=1;entryDx=0;entryDy=0;fillColor=#fff2cc;strokeColor=#000000;" edge="1" parent="WIyWlLk6GJQsqaUBKTNV-1" source="X6ecjH52VzshDSkAjW-6-50" target="X6ecjH52VzshDSkAjW-6-47">
          <mxGeometry width="50" height="50" relative="1" as="geometry">
            <mxPoint x="965" y="691.7893218813452" as="sourcePoint" />
            <mxPoint x="1005" y="702.5" as="targetPoint" />
          </mxGeometry>
        </mxCell>
        <mxCell id="piSnko-USVi0DX37_DhA-22" value="" style="endArrow=classic;startArrow=classic;html=1;rounded=0;fillColor=#ffe6cc;strokeColor=#000000;" edge="1" parent="WIyWlLk6GJQsqaUBKTNV-1" source="X6ecjH52VzshDSkAjW-6-14">
          <mxGeometry width="50" height="50" relative="1" as="geometry">
            <mxPoint x="649.2893218813452" y="995" as="sourcePoint" />
            <mxPoint x="649.2893218813452" y="945" as="targetPoint" />
          </mxGeometry>
        </mxCell>
        <mxCell id="piSnko-USVi0DX37_DhA-23" value="" style="endArrow=classic;html=1;rounded=0;entryX=0.5;entryY=1;entryDx=0;entryDy=0;" edge="1" parent="WIyWlLk6GJQsqaUBKTNV-1" source="X6ecjH52VzshDSkAjW-6-18" target="X6ecjH52VzshDSkAjW-6-12">
          <mxGeometry width="50" height="50" relative="1" as="geometry">
            <mxPoint x="610" y="929.2893218813452" as="sourcePoint" />
            <mxPoint x="610" y="879.2893218813452" as="targetPoint" />
          </mxGeometry>
        </mxCell>
        <mxCell id="piSnko-USVi0DX37_DhA-24" value="" style="endArrow=classic;html=1;rounded=0;entryX=0.5;entryY=0;entryDx=0;entryDy=0;fillColor=#fff2cc;strokeColor=#000000;" edge="1" parent="WIyWlLk6GJQsqaUBKTNV-1" source="X6ecjH52VzshDSkAjW-6-50" target="X6ecjH52VzshDSkAjW-6-58">
          <mxGeometry width="50" height="50" relative="1" as="geometry">
            <mxPoint x="960" y="802.5" as="sourcePoint" />
            <mxPoint x="960" y="823.2106781186548" as="targetPoint" />
          </mxGeometry>
        </mxCell>
        <mxCell id="piSnko-USVi0DX37_DhA-30" value="" style="endArrow=classic;html=1;rounded=0;entryX=0.75;entryY=0;entryDx=0;entryDy=0;" edge="1" parent="WIyWlLk6GJQsqaUBKTNV-1" source="X6ecjH52VzshDSkAjW-6-58" target="X6ecjH52VzshDSkAjW-6-14">
          <mxGeometry width="50" height="50" relative="1" as="geometry">
            <mxPoint x="825" y="930" as="sourcePoint" />
            <mxPoint x="825" y="950.7106781186548" as="targetPoint" />
          </mxGeometry>
        </mxCell>
      </root>
    </mxGraphModel>
  </diagram>
</mxfile>
